<svg width="183" height="217" viewBox="0 0 183 217" fill="none" xmlns="http://www.w3.org/2000/svg">
<g id="Vector" filter="url(#filter0_f_1005_1468)">
<path d="M74.5 5C99.1589 5 117.553 5.00237 131.699 6.9043C145.376 8.74304 154.941 12.3415 162.285 19.3242L162.989 20.0107C170.424 27.4458 174.198 37.1834 176.096 51.3008C177.998 65.4471 178 83.8408 178 108.5C178 133.159 177.998 151.553 176.096 165.699C174.257 179.376 170.658 188.941 163.675 196.285L162.989 196.989C155.555 204.424 145.817 208.198 131.699 210.096C117.553 211.998 99.1589 212 74.5 212C49.8408 212 31.4471 211.998 17.3008 210.096C3.62438 208.257 -5.94109 204.658 -13.2852 197.675L-13.9893 196.989C-21.4243 189.555 -25.1976 179.817 -27.0957 165.699C-28.9976 151.553 -29 133.159 -29 108.5C-29 83.8408 -28.9976 65.4471 -27.0957 51.3008C-25.257 37.6246 -21.6584 28.0589 -14.6758 20.7148L-13.9893 20.0107C-6.55423 12.5757 3.18329 8.80235 17.3008 6.9043C31.4471 5.00237 49.8408 5 74.5 5ZM54.624 128.376C51.281 125.033 45.9252 124.928 42.4561 128.062L42.126 128.376L32.7002 137.802L23.2744 128.376C19.9311 125.033 14.5746 124.928 11.1055 128.062L10.7764 128.376C7.43296 131.72 7.32835 137.075 10.4629 140.544L10.7764 140.874L20.2021 150.3L10.7764 159.727C7.43304 163.07 7.32859 168.424 10.4629 171.894L10.7764 172.224C14.1198 175.567 19.4752 175.672 22.9443 172.537L23.2744 172.224L32.7002 162.798L42.126 172.224C45.4693 175.567 50.8249 175.672 54.2939 172.537L54.624 172.224C57.9673 168.88 58.072 163.525 54.9375 160.056L54.624 159.727L45.1973 150.3L54.624 140.874C57.9674 137.531 58.0718 132.175 54.9375 128.706L54.624 128.376ZM95.4004 157.138C90.5198 157.138 86.5627 161.094 86.5625 165.975C86.5625 170.855 90.5197 174.812 95.4004 174.812H137.2C142.081 174.812 146.037 170.855 146.037 165.975C146.037 161.094 142.081 157.138 137.2 157.138H95.4004ZM95.4004 125.787C90.5197 125.787 86.5625 129.744 86.5625 134.625C86.5625 139.506 90.5197 143.463 95.4004 143.463H137.2C142.081 143.463 146.037 139.506 146.037 134.625C146.037 129.744 142.081 125.787 137.2 125.787H95.4004ZM32.7002 42.1875C27.8196 42.1875 23.8625 46.1437 23.8623 51.0244V63.0869H11.7998C6.91914 63.087 2.96294 67.0441 2.96289 71.9248C2.96289 76.8056 6.91912 80.7626 11.7998 80.7627H23.8623V92.8252C23.8624 97.7058 27.8195 101.662 32.7002 101.662C37.5808 101.662 41.537 97.7057 41.5371 92.8252V80.7627H53.5996C58.4803 80.7627 62.4375 76.8057 62.4375 71.9248C62.4375 67.0441 58.4802 63.0869 53.5996 63.0869H41.5371V51.0244C41.5369 46.1438 37.5808 42.1876 32.7002 42.1875ZM95.4004 63.0869C90.5197 63.0869 86.5625 67.0439 86.5625 71.9248C86.5625 76.8056 90.5197 80.7627 95.4004 80.7627H137.2C142.081 80.7626 146.037 76.8055 146.037 71.9248C146.037 67.044 142.081 63.087 137.2 63.0869H95.4004Z" stroke="white" stroke-opacity="0.5" stroke-width="2"/>
</g>
<defs>
<filter id="filter0_f_1005_1468" x="-34" y="0" width="217" height="217" filterUnits="userSpaceOnUse" color-interpolation-filters="sRGB">
<feFlood flood-opacity="0" result="BackgroundImageFix"/>
<feBlend mode="normal" in="SourceGraphic" in2="BackgroundImageFix" result="shape"/>
<feGaussianBlur stdDeviation="2" result="effect1_foregroundBlur_1005_1468"/>
</filter>
</defs>
</svg>
