<svg width="61" height="60" viewBox="0 0 61 60" fill="none" xmlns="http://www.w3.org/2000/svg">
<g id="business_svgrepo.com">
<path id="Vector" d="M19.634 17.64L19.5626 12.1743C19.5516 11.3394 20.2273 10.6582 21.0623 10.6582H39.9368C40.7662 10.6582 41.4364 11.3284 41.4364 12.1578V17.618H37.5912V14.5034H23.4408L23.4793 17.5961L19.634 17.64Z" fill="#0293EE"/>
<path id="Vector_2" d="M24.1774 19.6731H18.8105C18.7172 19.6731 18.6348 19.5962 18.6348 19.4973V17.7285C18.6348 17.6351 18.7117 17.5527 18.8105 17.5527H24.1774C24.2708 17.5527 24.3531 17.6296 24.3531 17.7285V19.4973C24.3531 19.5962 24.2708 19.6731 24.1774 19.6731ZM42.184 19.6731H36.8446C36.7402 19.6731 36.6578 19.5907 36.6578 19.4863V17.7505C36.6578 17.6461 36.7402 17.5637 36.8446 17.5637H42.184C42.2883 17.5637 42.3707 17.6461 42.3707 17.7505V19.4863C42.3762 19.5907 42.2883 19.6731 42.184 19.6731Z" fill="#DAECF9"/>
<path id="Vector_3" d="M51.0603 54.6201H10.0483C7.77966 54.6201 5.93945 52.7799 5.93945 50.5112V23.5728C5.93945 21.3041 7.77966 19.4639 10.0483 19.4639H51.0548C53.3235 19.4639 55.1637 21.3041 55.1637 23.5728V50.5112C55.1692 52.7799 53.329 54.6201 51.0603 54.6201Z" fill="#0293EE"/>
<path id="Vector_4" d="M14.2441 19.4706L18.6387 19.458L18.7399 54.5758L14.3453 54.5884L14.2441 19.4706ZM42.3747 19.4706L46.7693 19.458L46.8705 54.5758L42.4759 54.5884L42.3747 19.4706Z" fill="#DAECF9"/>
</g>
</svg>
