<svg width="60" height="60" viewBox="0 0 60 60" fill="none" xmlns="http://www.w3.org/2000/svg">
<g id="profile_svgrepo.com">
<path id="Vector" d="M36.4398 25.848C36.4349 24.0229 35.707 22.274 34.4156 20.9844C33.1242 19.6947 31.3743 18.9692 29.5492 18.9668C27.7256 18.9712 25.9779 19.6977 24.6884 20.9871C23.3988 22.2766 22.6724 24.0243 22.668 25.848C22.6704 27.6732 23.3959 29.4229 24.6857 30.7143C25.9753 32.0058 27.7241 32.7337 29.5492 32.7387C31.3758 32.7357 33.1267 32.0087 34.4183 30.7171C35.7099 29.4255 36.4368 27.6746 36.4398 25.848Z" fill="#0293EE"/>
<path id="Vector_2" d="M30.3652 36.4883H28.734C25.6741 36.491 22.7403 37.7078 20.5765 39.8715C18.4129 42.0352 17.1961 44.969 17.1934 48.0289V54.0008H41.9059V48.0289C41.9031 44.969 40.6864 42.0352 38.5227 39.8715C36.359 37.7078 33.4251 36.491 30.3652 36.4883Z" fill="#0293EE"/>
<path id="Vector_3" d="M48.3008 5.25098H10.8008C9.30894 5.25098 7.87819 5.84361 6.8233 6.8985C5.76841 7.9534 5.17578 9.38418 5.17578 10.876V48.376C5.17578 49.8678 5.76841 51.2986 6.8233 52.3535C7.87819 53.4083 9.30894 54.001 10.8008 54.001H13.4445V48.0291C13.4469 45.038 14.3253 42.1131 15.9715 39.6156C17.6175 37.1181 19.9591 35.1576 22.707 33.9759C21.5191 32.9811 20.5643 31.7374 19.9098 30.3329C19.2554 28.9284 18.9173 27.3973 18.9195 25.8479C18.9238 23.0296 20.0452 20.3279 22.038 18.3351C24.0309 16.3422 26.7325 15.2209 29.5508 15.2166C32.3705 15.2188 35.0744 16.3393 37.0691 18.3323C39.0638 20.3253 40.1867 23.0281 40.1914 25.8479C40.1937 27.3973 39.8556 28.9284 39.2011 30.3329C38.5467 31.7374 37.5918 32.9811 36.4039 33.9759C39.1496 35.1595 41.4888 37.1209 43.1331 39.6181C44.7774 42.1153 45.6548 45.0392 45.657 48.0291V54.001H48.3008C49.7926 54.001 51.2234 53.4083 52.2782 52.3535C53.3332 51.2986 53.9258 49.8678 53.9258 48.376V10.876C53.9258 9.38418 53.3332 7.9534 52.2782 6.8985C51.2234 5.84361 49.7926 5.25098 48.3008 5.25098Z" fill="#DAECF9"/>
</g>
</svg>
